<svg font-family="arial" font-size="14" height="8032" width="192" xmlns="http://www.w3.org/2000/svg">
<style>

    line, path {
      stroke: black;
      stroke-width: 2;
      stroke-opacity: 1;
      fill-opacity: 1;
      stroke-linecap: round;
      stroke-linejoin: miter;
    }
    circle {
      stroke: black;
      stroke-width: 1;
      stroke-opacity: 1;
      fill-opacity: 1;
      stroke-linecap: round;
      stroke-linejoin: miter;
      fill:white;
    }
    tspan.head{
        fill: none;
        stroke: none;
    }
    
</style>
<text text-anchor="start" x="8" y="44">
╾━╤デ╦︻༼ಠ益ಠ༽︻╦̵̵͇̿̿̿̿══╤─
</text>
<text text-anchor="end" x="8" y="92">

</text>
<circle cx="32" cy="88" r="24"/>
<text text-anchor="middle" x="32" y="92">
<tspan class='head'>(</tspan>˙ ͜ʟ˙ <tspan class='head'>)</tspan>
</text>
<text text-anchor="start" x="56" y="92">

</text>
<text text-anchor="start" x="88" y="140">
 └⋃┘
</text>
<text text-anchor="end" x="8" y="140">

</text>
<circle cx="36" cy="136" r="28"/>
<text text-anchor="middle" x="36" y="140">
<tspan class='head'>(</tspan>つ°ヮ°<tspan class='head'>)</tspan>
</text>
<text text-anchor="start" x="64" y="140">
つ 
</text>
<text text-anchor="start" x="8" y="188">
⎝༼ຈل͜ຈ༽⎠
</text>
<text text-anchor="end" x="8" y="284">

</text>
<circle cx="28" cy="280" r="20"/>
<text text-anchor="middle" x="28" y="284">
<tspan class='head'>(</tspan>⊙ヮ⊙<tspan class='head'>)</tspan>
</text>
<text text-anchor="start" x="48" y="284">

</text>
<text text-anchor="start" x="8" y="332">
༼⊙ʖ̯⊙༽
</text>
<text text-anchor="start" x="8" y="380">
༼⌐□ل͜□༽
</text>
<text text-anchor="start" x="8" y="428">
ง/͠-┌ل͜┐͡-\ง
</text>
<text text-anchor="end" x="24" y="476">
ヽ
</text>
<circle cx="52" cy="472" r="28"/>
<text text-anchor="middle" x="52" y="476">
<tspan class='head'>(</tspan> ͝° ̯ʖ ͝°<tspan class='head'>)</tspan>
</text>
<text text-anchor="start" x="80" y="476">
ﾉ
</text>
<text text-anchor="start" x="8" y="524">
ᶘ
</text>
<text text-anchor="start" x="8" y="524">
ᶘ ͡°ᴥ͡°ᶅ
</text>
<text text-anchor="end" x="8" y="572">

</text>
<circle cx="28" cy="568" r="20"/>
<text text-anchor="middle" x="28" y="572">
<tspan class='head'>(</tspan> ͡⚆ل͜⚆<tspan class='head'>)</tspan>
</text>
<text text-anchor="start" x="48" y="572">
ﾉ⚲
</text>
<text text-anchor="end" x="24" y="620">
ᗜԅ
</text>
<circle cx="44" cy="616" r="20"/>
<text text-anchor="middle" x="44" y="620">
<tspan class='head'>(</tspan>⇀︿⇀<tspan class='head'>)</tspan>
</text>
<text text-anchor="start" x="64" y="620">
ᓄ-¤]═────
</text>
<text text-anchor="start" x="8" y="668">
✿∗˵╰༼✪ᗜ✪༽╯˵∗✿
</text>
<text text-anchor="end" x="8" y="716">

</text>
<circle cx="32" cy="712" r="24"/>
<text text-anchor="middle" x="32" y="716">
<tspan class='head'>(</tspan>つ･◡･<tspan class='head'>)</tspan>
</text>
<text text-anchor="start" x="56" y="716">
つ
</text>
<text text-anchor="end" x="16" y="764">
ᕦ
</text>
<circle cx="40" cy="760" r="24"/>
<text text-anchor="middle" x="40" y="764">
<tspan class='head'>(</tspan>눈_눈<tspan class='head'>)</tspan>
</text>
<text text-anchor="start" x="64" y="764">
ᕗ
</text>
<text text-anchor="end" x="8" y="812">

</text>
<circle cx="32" cy="808" r="24"/>
<text text-anchor="middle" x="32" y="812">
<tspan class='head'>(</tspan>⌐▀͡ ̯ʖ▀<tspan class='head'>)</tspan>
</text>
<text text-anchor="start" x="56" y="812">

</text>
<text text-anchor="start" x="8" y="860">
ζ༼Ɵ͆ل͜Ɵ͆༽ᶘ
</text>
<text text-anchor="end" x="24" y="908">
ヽ
</text>
<circle cx="52" cy="904" r="28"/>
<text text-anchor="middle" x="52" y="908">
<tspan class='head'>(</tspan> ⌐□益□<tspan class='head'>)</tspan>
</text>
<text text-anchor="start" x="80" y="908">
/
</text>
<text text-anchor="end" x="8" y="956">

</text>
<circle cx="28" cy="952" r="20"/>
<text text-anchor="middle" x="28" y="956">
<tspan class='head'>(</tspan>▀̿̿Ĺ̯̿̿▀̿ ̿<tspan class='head'>)</tspan>
</text>
<text text-anchor="start" x="48" y="956">

</text>
<text text-anchor="start" x="8" y="1004">
⋋|།&apos;͡ᴼ╭͜ʖ╮͡ᴼ&apos;།|⋌
</text>
<text text-anchor="start" x="8" y="1052">
[•+•]=|:::&gt;
</text>
<text text-anchor="start" x="8" y="1100">
╰༼◉Д◕༽〜┣▇▇▇═──
</text>
<text text-anchor="start" x="8" y="1148">
╰༼ཀДཀ༽╯
</text>
<text text-anchor="start" x="8" y="1196">
ԅ〳
</text>
<text text-anchor="start" x="8" y="1196">
ԅ〳 ͜ಠ
</text>
<text text-anchor="start" x="8" y="1196">
ԅ〳 ͜ಠ ͜ʟ
</text>
<text text-anchor="start" x="8" y="1196">
ԅ〳 ͜ಠ ͜ʟ ͜ಠ
</text>
<text text-anchor="start" x="8" y="1196">
ԅ〳 ͜ಠ ͜ʟ ͜ಠ 〵و
</text>
<text text-anchor="end" x="24" y="1244">
ヽ
</text>
<circle cx="52" cy="1240" r="28"/>
<text text-anchor="middle" x="52" y="1244">
<tspan class='head'>(</tspan> °╭∩╮°<tspan class='head'>)</tspan>
</text>
<text text-anchor="start" x="80" y="1244">
ﾉ
</text>
<text text-anchor="start" x="8" y="1292">
-[ºل͟º]-
</text>
<text text-anchor="start" x="8" y="1340">
-[
</text>
<text text-anchor="start" x="8" y="1340">
-[ ͡°
</text>
<text text-anchor="start" x="8" y="1340">
-[ ͡° ͜ʖ
</text>
<text text-anchor="start" x="8" y="1340">
-[ ͡° ͜ʖ ͡°]-
</text>
<text text-anchor="start" x="8" y="1388">
[
</text>
<text text-anchor="start" x="8" y="1388">
[ ͝°
</text>
<text text-anchor="start" x="8" y="1388">
[ ͝° ͜ʖ͡°]┌П┐
</text>
<text text-anchor="end" x="8" y="1436">

</text>
<circle cx="32" cy="1432" r="24"/>
<text text-anchor="middle" x="32" y="1436">
<tspan class='head'>(</tspan> ° ͜ʖ͡°<tspan class='head'>)</tspan>
</text>
<text text-anchor="start" x="56" y="1436">
╭∩╮
</text>
<text text-anchor="start" x="8" y="1484">
└[ຈل͜ರೃ]┘
</text>
<text text-anchor="end" x="8" y="1532">

</text>
<circle cx="52" cy="1528" r="44"/>
<text text-anchor="middle" x="52" y="1532">
<tspan class='head'>(</tspan>●￣ ㋓ ￣●<tspan class='head'>)</tspan>
</text>
<text text-anchor="start" x="96" y="1532">

</text>
<text text-anchor="start" x="8" y="1580">
/╯⋋┏□┓⋌\╯
</text>
<text text-anchor="start" x="8" y="1628">
ヽ/⋋┏_┓⋌\ﾉ
</text>
<text text-anchor="start" x="8" y="1676">
ヽ/✿ര̀
</text>
<text text-anchor="start" x="8" y="1676">
ヽ/✿ര̀ ل͜
</text>
<text text-anchor="start" x="8" y="1676">
ヽ/✿ര̀ ل͜ ര́\ﾉ
</text>
<text text-anchor="start" x="8" y="1724">
ヽ/❀ᓀ
</text>
<text text-anchor="start" x="8" y="1724">
ヽ/❀ᓀ ل͜
</text>
<text text-anchor="start" x="8" y="1724">
ヽ/❀ᓀ ل͜ ᓂ\ﾉ
</text>
<text text-anchor="start" x="8" y="1772">
୧༼
</text>
<text text-anchor="start" x="8" y="1772">
୧༼ ͡◕
</text>
<text text-anchor="start" x="8" y="1772">
୧༼ ͡◕ д
</text>
<text text-anchor="start" x="8" y="1772">
୧༼ ͡◕ д ◕͡
</text>
<text text-anchor="start" x="8" y="1772">
୧༼ ͡◕ д ◕͡ ༽୨
</text>
<text text-anchor="end" x="24" y="1820">
ヽ
</text>
<circle cx="48" cy="1816" r="24"/>
<text text-anchor="middle" x="48" y="1820">
<tspan class='head'>(</tspan>ಥ益ಥ;<tspan class='head'>)</tspan>
</text>
<text text-anchor="start" x="72" y="1820">

</text>
<text text-anchor="end" x="16" y="1868">
╭
</text>
<circle cx="44" cy="1864" r="28"/>
<text text-anchor="middle" x="44" y="1868">
<tspan class='head'>(</tspan> ☯̿∠ ̿☯ <tspan class='head'>)</tspan>
</text>
<text text-anchor="start" x="72" y="1868">
╯
</text>
<text text-anchor="end" x="24" y="1916">
Ѱ୧
</text>
<circle cx="44" cy="1912" r="20"/>
<text text-anchor="middle" x="44" y="1916">
<tspan class='head'>(</tspan>ಠل͟ ಠ<tspan class='head'>)</tspan>
</text>
<text text-anchor="start" x="64" y="1916">

</text>
<text text-anchor="end" x="32" y="1948">
Ѱへ
</text>
<circle cx="52" cy="1944" r="20"/>
<text text-anchor="middle" x="52" y="1948">
<tspan class='head'>(</tspan>ಠل͟ ಠ<tspan class='head'>)</tspan>
</text>
<text text-anchor="start" x="72" y="1948">

</text>
<text text-anchor="end" x="32" y="1996">
⁽⁽◝
</text>
<circle cx="76" cy="1992" r="44"/>
<text text-anchor="middle" x="76" y="1996">
<tspan class='head'>(</tspan>∗ ❛⃘ ꒫ ❜⃘⃘ ∗<tspan class='head'>)</tspan>
</text>
<text text-anchor="start" x="120" y="1996">
◜⁾⁾
</text>
<text text-anchor="start" x="8" y="2044">
へ[
</text>
<text text-anchor="start" x="8" y="2044">
へ[ ᴼ
</text>
<text text-anchor="start" x="8" y="2044">
へ[ ᴼ ▃
</text>
<text text-anchor="start" x="8" y="2044">
へ[ ᴼ ▃ ᴼ
</text>
<text text-anchor="start" x="8" y="2044">
へ[ ᴼ ▃ ᴼ ]_/¯
</text>
<text text-anchor="end" x="24" y="2092">
ヽ
</text>
<circle cx="44" cy="2088" r="20"/>
<text text-anchor="middle" x="44" y="2092">
<tspan class='head'>(</tspan>๏∀◕ <tspan class='head'>)</tspan>
</text>
<text text-anchor="start" x="64" y="2092">
ﾉ
</text>
<text text-anchor="end" x="24" y="2140">
＼
</text>
<circle cx="48" cy="2136" r="24"/>
<text text-anchor="middle" x="48" y="2140">
<tspan class='head'>(</tspan>´◓Д◔`<tspan class='head'>)</tspan>
</text>
<text text-anchor="start" x="72" y="2140">
／
</text>
<text text-anchor="start" x="8" y="2188">
ヘ（。□°）ヘ
</text>
<text text-anchor="end" x="72" y="2236">
(- ͟ل͜ ͡-)-
</text>
<circle cx="92" cy="2232" r="20"/>
<text text-anchor="middle" x="92" y="2236">
<tspan class='head'>(</tspan>ಠ﹏ಥ<tspan class='head'>)</tspan>
</text>
<text text-anchor="start" x="112" y="2236">
-(ಠ﹏ಥ)
</text>
<text text-anchor="start" x="8" y="2284">
ʕっ༎ຶᴥ༎ຶʔっ
</text>
<text text-anchor="end" x="16" y="2332">
╭
</text>
<circle cx="32" cy="2328" r="16"/>
<text text-anchor="middle" x="32" y="2332">
<tspan class='head'>(</tspan>•⌣•<tspan class='head'>)</tspan>
</text>
<text text-anchor="start" x="48" y="2332">
╮
</text>
<text text-anchor="start" x="8" y="2380">
ᕦ༼༎ຶ_༎ຶ༽ᕗ
</text>
<text text-anchor="start" x="8" y="2428">
༼
</text>
<text text-anchor="start" x="8" y="2428">
༼ つ⇧
</text>
<text text-anchor="start" x="8" y="2428">
༼ つ⇧ ◕_◕
</text>
<text text-anchor="start" x="8" y="2428">
༼ つ⇧ ◕_◕ ༽つ⇧
</text>
<text text-anchor="start" x="80" y="2476">
 *
</text>
<text text-anchor="start" x="80" y="2476">
 * ･
</text>
<text text-anchor="start" x="80" y="2476">
 * ･ ｡ﾟ
</text>
<text text-anchor="end" x="16" y="2476">
╰
</text>
<circle cx="32" cy="2472" r="16"/>
<text text-anchor="middle" x="32" y="2476">
<tspan class='head'>(</tspan>◉͜ʖ◉<tspan class='head'>)</tspan>
</text>
<text text-anchor="start" x="48" y="2476">
ԅ†. 
</text>
<text text-anchor="end" x="16" y="2524">
╭
</text>
<circle cx="48" cy="2520" r="32"/>
<text text-anchor="middle" x="48" y="2524">
<tspan class='head'>(</tspan>۝乁 ͜ﾚ ㄏ۝<tspan class='head'>)</tspan>
</text>
<text text-anchor="start" x="80" y="2524">
╮
</text>
<text text-anchor="start" x="8" y="2572">
༼
</text>
<text text-anchor="start" x="8" y="2572">
༼ ▀̿̿Ĺ̯̿̿▀̿
</text>
<text text-anchor="start" x="8" y="2572">
༼ ▀̿̿Ĺ̯̿̿▀̿ ༼
</text>
<text text-anchor="start" x="8" y="2572">
༼ ▀̿̿Ĺ̯̿̿▀̿ ༼ ▀̿̿Ĺ̯̿̿▀̿༽▀̿̿Ĺ̯̿̿▀̿
</text>
<text text-anchor="start" x="8" y="2572">
༼ ▀̿̿Ĺ̯̿̿▀̿ ༼ ▀̿̿Ĺ̯̿̿▀̿༽▀̿̿Ĺ̯̿̿▀̿ ༽
</text>
<text text-anchor="end" x="24" y="2620">
Ѱ╭
</text>
<circle cx="32" cy="2616" r="8"/>
<text text-anchor="middle" x="32" y="2620">
<tspan class='head'>(</tspan>۝⌣۝<tspan class='head'>)</tspan>
</text>
<text text-anchor="start" x="40" y="2620">
╮Ѱ
</text>
<text text-anchor="start" x="8" y="2668">
ヽ༼◐ل͜◑༽ﾉ
</text>
<text text-anchor="end" x="24" y="2716">
凸
</text>
<circle cx="44" cy="2712" r="20"/>
<text text-anchor="middle" x="44" y="2716">
<tspan class='head'>(</tspan>▀̿̿益☢<tspan class='head'>)</tspan>
</text>
<text text-anchor="start" x="64" y="2716">
凸
</text>
<text text-anchor="start" x="8" y="2764">
&lt;:::::[]=¤༼ຈل͜ຈ༽ﾉ
</text>
<text text-anchor="start" x="8" y="2812">
༼
</text>
<text text-anchor="start" x="8" y="2812">
༼ °ｰ°
</text>
<text text-anchor="start" x="8" y="2812">
༼ °ｰ° ༽
</text>
<text text-anchor="end" x="24" y="2860">
乁
</text>
<circle cx="44" cy="2856" r="20"/>
<text text-anchor="middle" x="44" y="2860">
<tspan class='head'>(</tspan>ಥ౪ಥ;<tspan class='head'>)</tspan>
</text>
<text text-anchor="start" x="64" y="2860">
ㄏ
</text>
<text text-anchor="start" x="8" y="2908">
/╲/\╭༼
</text>
<text text-anchor="start" x="8" y="2908">
/╲/\╭༼ :
</text>
<text text-anchor="start" x="8" y="2908">
/╲/\╭༼ : ❛
</text>
<text text-anchor="start" x="8" y="2908">
/╲/\╭༼ : ❛ ◡
</text>
<text text-anchor="start" x="8" y="2908">
/╲/\╭༼ : ❛ ◡ ❛
</text>
<text text-anchor="start" x="8" y="2908">
/╲/\╭༼ : ❛ ◡ ❛ :
</text>
<text text-anchor="start" x="8" y="2908">
/╲/\╭༼ : ❛ ◡ ❛ : ༽╮/\╱﻿\
</text>
<text text-anchor="start" x="8" y="2956">
ヽ༼
</text>
<text text-anchor="start" x="8" y="2956">
ヽ༼ ຈل͜ຈ༼
</text>
<text text-anchor="start" x="8" y="2956">
ヽ༼ ຈل͜ຈ༼ ▀̿Ĺ̯▀̿
</text>
<text text-anchor="start" x="8" y="2956">
ヽ༼ ຈل͜ຈ༼ ▀̿Ĺ̯▀̿ ̿༽Ɵ͆ل͜Ɵ͆
</text>
<text text-anchor="start" x="8" y="2956">
ヽ༼ ຈل͜ຈ༼ ▀̿Ĺ̯▀̿ ̿༽Ɵ͆ل͜Ɵ͆ ༽ﾉ
</text>
<text text-anchor="end" x="8" y="3004">

</text>
<circle cx="24" cy="3000" r="16"/>
<text text-anchor="middle" x="24" y="3004">
<tspan class='head'>(</tspan>▀̿̿Ĺ̯̿̿°<tspan class='head'>)</tspan>
</text>
<text text-anchor="start" x="40" y="3004">
ง
</text>
<text text-anchor="start" x="8" y="3052">
╭∩╮༼ಠ益ಠ༽
</text>
<text text-anchor="start" x="8" y="3100">
ヽヽ༼༼ຈຈل͜ل͜ຈຈ༽༽ﾉﾉ
</text>
<text text-anchor="end" x="8" y="3148">

</text>
<circle cx="36" cy="3144" r="28"/>
<text text-anchor="middle" x="36" y="3148">
<tspan class='head'>(</tspan>っ˘̩╭╮˘̩<tspan class='head'>)</tspan>
</text>
<text text-anchor="start" x="64" y="3148">
っ
</text>
<text text-anchor="end" x="8" y="3196">

</text>
<circle cx="28" cy="3192" r="20"/>
<text text-anchor="middle" x="28" y="3196">
<tspan class='head'>(</tspan>⌣_⌣”<tspan class='head'>)</tspan>
</text>
<text text-anchor="start" x="48" y="3196">

</text>
<text text-anchor="start" x="8" y="3244">
▄█▄༼ຈل͜ຈ༽▄█▄
</text>
<text text-anchor="end" x="8" y="3292">

</text>
<circle cx="36" cy="3288" r="28"/>
<text text-anchor="middle" x="36" y="3292">
<tspan class='head'>(</tspan> ° ͜ਊ °<tspan class='head'>)</tspan>
</text>
<text text-anchor="start" x="64" y="3292">
╭∩╮
</text>
<text text-anchor="end" x="24" y="3340">
⋛⋋
</text>
<circle cx="48" cy="3336" r="24"/>
<text text-anchor="middle" x="48" y="3340">
<tspan class='head'>(</tspan> ՞ਊ ՞<tspan class='head'>)</tspan>
</text>
<text text-anchor="start" x="72" y="3340">
⋌⋚
</text>
<text text-anchor="end" x="8" y="3388">

</text>
<circle cx="28" cy="3384" r="20"/>
<text text-anchor="middle" x="28" y="3388">
<tspan class='head'>(</tspan>｡˘з˘<tspan class='head'>)</tspan>
</text>
<text text-anchor="start" x="48" y="3388">
ᗡლ==8
</text>
<text text-anchor="start" x="8" y="3436">
༼ຈل͜ຈ༽_•︻̷┻̿═━一
</text>
<text text-anchor="end" x="8" y="3532">

</text>
<circle cx="32" cy="3528" r="24"/>
<text text-anchor="middle" x="32" y="3532">
<tspan class='head'>(</tspan> ͝° ͜ʖ͡°<tspan class='head'>)</tspan>
</text>
<text text-anchor="start" x="56" y="3532">
つY
</text>
<text text-anchor="end" x="24" y="3580">
ヽ
</text>
<circle cx="56" cy="3576" r="32"/>
<text text-anchor="middle" x="56" y="3580">
<tspan class='head'>(</tspan> ͡°╭͜ʖ╮͡° <tspan class='head'>)</tspan>
</text>
<text text-anchor="start" x="88" y="3580">
ﾉ
</text>
<text text-anchor="start" x="8" y="3628">
༼凸
</text>
<text text-anchor="start" x="8" y="3628">
༼凸 ◉_◔༽凸
</text>
<text text-anchor="start" x="8" y="3676">
ヽ༼✿σل͜
</text>
<text text-anchor="start" x="8" y="3676">
ヽ༼✿σل͜ σ༽ﾉ
</text>
<text text-anchor="end" x="32" y="3724">
/╲/
</text>
<circle cx="60" cy="3720" r="28"/>
<text text-anchor="middle" x="60" y="3724">
<tspan class='head'>(</tspan> ͡⎚ ͜U ͡⎚<tspan class='head'>)</tspan>
</text>
<text text-anchor="start" x="88" y="3724">
/\╱\
</text>
<text text-anchor="end" x="8" y="3772">

</text>
<circle cx="36" cy="3768" r="28"/>
<text text-anchor="middle" x="36" y="3772">
<tspan class='head'>(</tspan> ͡⚆ ͜ʖ ͡⚆<tspan class='head'>)</tspan>
</text>
<text text-anchor="start" x="64" y="3772">

</text>
<text text-anchor="start" x="8" y="3820">
ヽ༼⚆ل͜⚆༽ﾉ
</text>
<text text-anchor="end" x="8" y="3868">

</text>
<circle cx="32" cy="3864" r="24"/>
<text text-anchor="middle" x="32" y="3868">
<tspan class='head'>(</tspan> ͡ _ ͡°<tspan class='head'>)</tspan>
</text>
<text text-anchor="start" x="56" y="3868">
ﾉ⚲
</text>
<text text-anchor="start" x="8" y="3916">
♫
</text>
<text text-anchor="start" x="8" y="3916">
♫ ┌༼ຈل͜ຈ༽┘
</text>
<text text-anchor="start" x="8" y="3916">
♫ ┌༼ຈل͜ຈ༽┘ ♪
</text>
<text text-anchor="start" x="8" y="3964">
ಠ⌣ಠ
</text>
<text text-anchor="start" x="8" y="4012">
༼
</text>
<text text-anchor="start" x="8" y="4012">
༼ ಥل͟ಥ
</text>
<text text-anchor="start" x="8" y="4012">
༼ ಥل͟ಥ ༽
</text>
<text text-anchor="start" x="8" y="4012">
༼ ಥل͟ಥ ༽ ┬┴┬┴┤
</text>
<text text-anchor="start" x="8" y="4060">
༼ຈل͜├┬┴┬┴
</text>
<text text-anchor="start" x="8" y="4108">
༼
</text>
<text text-anchor="start" x="8" y="4108">
༼ ಠل͟ಠ༽
</text>
<text text-anchor="start" x="8" y="4156">
ᕕ༼ຈل͜ຈ༽ᕗ
</text>
<text text-anchor="end" x="16" y="4204">
ᕕ
</text>
<circle cx="44" cy="4200" r="28"/>
<text text-anchor="middle" x="44" y="4204">
<tspan class='head'>(</tspan> ͡° ͜ʖ ͡°<tspan class='head'>)</tspan>
</text>
<text text-anchor="start" x="72" y="4204">
ᕗ
</text>
<text text-anchor="start" x="8" y="4252">
༼ง
</text>
<text text-anchor="start" x="8" y="4252">
༼ง ͠ຈ
</text>
<text text-anchor="start" x="8" y="4252">
༼ง ͠ຈ ͟ل͜
</text>
<text text-anchor="start" x="8" y="4252">
༼ง ͠ຈ ͟ل͜ ͠ຈ༽ง
</text>
<text text-anchor="start" x="8" y="4300">
|༼ʘ
</text>
<text text-anchor="start" x="8" y="4300">
|༼ʘ ل͜
</text>
<text text-anchor="start" x="8" y="4300">
|༼ʘ ل͜ ʘ༽|
</text>
<text text-anchor="start" x="8" y="4348">
ヽ༼◕ل͜◕༽ﾉ
</text>
<text text-anchor="start" x="8" y="4396">
ζ༼Ɵ͆ل͜Ɵ͆༽ᶘ
</text>
<text text-anchor="end" x="8" y="4444">

</text>
<circle cx="28" cy="4440" r="20"/>
<text text-anchor="middle" x="28" y="4444">
<tspan class='head'>(</tspan>° ͜ʖ°<tspan class='head'>)</tspan>
</text>
<text text-anchor="start" x="48" y="4444">

</text>
<text text-anchor="start" x="8" y="4492">
ヽ༼
</text>
<text text-anchor="start" x="8" y="4492">
ヽ༼ ツ
</text>
<text text-anchor="start" x="8" y="4492">
ヽ༼ ツ ༽ﾉ
</text>
<text text-anchor="start" x="8" y="4540">
（͡°͜ʖ͡°）
</text>
<text text-anchor="start" x="80" y="4588">
 ┻━┻
</text>
<text text-anchor="end" x="8" y="4588">

</text>
<circle cx="28" cy="4584" r="20"/>
<text text-anchor="middle" x="28" y="4588">
<tspan class='head'>(</tspan>╯°□°<tspan class='head'>)</tspan>
</text>
<text text-anchor="start" x="48" y="4588">
╯︵ 
</text>
<text text-anchor="start" x="8" y="4636">
༼ʕっ•ᴥ•ʔっ
</text>
<text text-anchor="end" x="8" y="4684">

</text>
<circle cx="36" cy="4680" r="28"/>
<text text-anchor="middle" x="36" y="4684">
<tspan class='head'>(</tspan> ＾◡＾<tspan class='head'>)</tspan>
</text>
<text text-anchor="start" x="64" y="4684">
っ✂╰⋃╯
</text>
<text text-anchor="end" x="16" y="4732">
╰
</text>
<circle cx="44" cy="4728" r="28"/>
<text text-anchor="middle" x="44" y="4732">
<tspan class='head'>(</tspan> ͡&apos;◟◯ ͡&apos;<tspan class='head'>)</tspan>
</text>
<text text-anchor="start" x="72" y="4732">
╯
</text>
<text text-anchor="start" x="8" y="4780">
ヽ༼
</text>
<text text-anchor="start" x="8" y="4780">
ヽ༼ ຈل͜ຈ༼
</text>
<text text-anchor="start" x="8" y="4780">
ヽ༼ ຈل͜ຈ༼ ຈل͜ຈ༽ຈل͜ຈ
</text>
<text text-anchor="start" x="8" y="4780">
ヽ༼ ຈل͜ຈ༼ ຈل͜ຈ༽ຈل͜ຈ ༽ﾉ
</text>
<text text-anchor="start" x="8" y="4828">
༼
</text>
<text text-anchor="start" x="8" y="4828">
༼ -
</text>
<text text-anchor="start" x="8" y="4828">
༼ - ل͜
</text>
<text text-anchor="start" x="8" y="4828">
༼ - ل͜ -
</text>
<text text-anchor="start" x="8" y="4828">
༼ - ل͜ - ༽
</text>
<text text-anchor="start" x="8" y="4876">
ヽ°
</text>
<text text-anchor="start" x="8" y="4876">
ヽ° ~͜ʖ~
</text>
<text text-anchor="start" x="8" y="4876">
ヽ° ~͜ʖ~ °ﾉ
</text>
<text text-anchor="start" x="8" y="4924">
ᕙ
</text>
<text text-anchor="start" x="96" y="4924">
 ᕗ
</text>
<text text-anchor="end" x="24" y="4924">
ᕙ 
</text>
<circle cx="56" cy="4920" r="32"/>
<text text-anchor="middle" x="56" y="4924">
<tspan class='head'>(</tspan>° ~͜ʖ~ °<tspan class='head'>)</tspan>
</text>
<text text-anchor="start" x="88" y="4924">
 
</text>
<text text-anchor="end" x="24" y="4972">
乁
</text>
<circle cx="48" cy="4968" r="24"/>
<text text-anchor="middle" x="48" y="4972">
<tspan class='head'>(</tspan> ◔ ౪◔<tspan class='head'>)</tspan>
</text>
<text text-anchor="start" x="72" y="4972">
ㄏ
</text>
<text text-anchor="start" x="8" y="5020">
༼
</text>
<text text-anchor="start" x="8" y="5020">
༼ つ
</text>
<text text-anchor="start" x="8" y="5020">
༼ つ ◕_◕
</text>
<text text-anchor="start" x="8" y="5020">
༼ つ ◕_◕ ༽つ
</text>
<text text-anchor="start" x="8" y="5068">
ヽ༼ຈل͜ರೃ༽ﾉ
</text>
<text text-anchor="start" x="8" y="5116">
୧༼ಠ益ರೃ༽୨
</text>
<text text-anchor="end" x="8" y="5164">

</text>
<circle cx="36" cy="5160" r="28"/>
<text text-anchor="middle" x="36" y="5164">
<tspan class='head'>(</tspan> ﾉ ﾟｰﾟ<tspan class='head'>)</tspan>
</text>
<text text-anchor="start" x="64" y="5164">
ﾉ
</text>
<text text-anchor="start" x="8" y="5212">
ヽຈل͜ຈﾉ
</text>
<text text-anchor="end" x="24" y="5260">
ヽ
</text>
<circle cx="48" cy="5256" r="24"/>
<text text-anchor="middle" x="48" y="5260">
<tspan class='head'>(</tspan>ﾟｰﾟヽ<tspan class='head'>)</tspan>
</text>
<text text-anchor="start" x="72" y="5260">

</text>
<text text-anchor="start" x="8" y="5308">
ヽ༼ຈ益ຈ༽ﾉ
</text>
<text text-anchor="end" x="8" y="5356">

</text>
<circle cx="32" cy="5352" r="24"/>
<text text-anchor="middle" x="32" y="5356">
<tspan class='head'>(</tspan>☢益☢t<tspan class='head'>)</tspan>
</text>
<text text-anchor="start" x="56" y="5356">

</text>
<text text-anchor="start" x="8" y="5404">
༼ᕗຈل͜ຈ༽ᕗ
</text>
<text text-anchor="end" x="16" y="5452">
╮
</text>
<circle cx="32" cy="5448" r="16"/>
<text text-anchor="middle" x="32" y="5452">
<tspan class='head'>(</tspan>╯▽╰<tspan class='head'>)</tspan>
</text>
<text text-anchor="start" x="48" y="5452">
╭
</text>
<text text-anchor="end" x="16" y="5500">
╮
</text>
<circle cx="32" cy="5496" r="16"/>
<text text-anchor="middle" x="32" y="5500">
<tspan class='head'>(</tspan>╯ل͜╰<tspan class='head'>)</tspan>
</text>
<text text-anchor="start" x="48" y="5500">
╭
</text>
<text text-anchor="start" x="8" y="5548">
༼
</text>
<text text-anchor="start" x="8" y="5548">
༼ つ◕(oo)◕༽つ
</text>
<text text-anchor="end" x="8" y="5596">

</text>
<circle cx="32" cy="5592" r="24"/>
<text text-anchor="middle" x="32" y="5596">
<tspan class='head'>(</tspan>ι´Д｀<tspan class='head'>)</tspan>
</text>
<text text-anchor="start" x="56" y="5596">
ﾉ
</text>
<text text-anchor="start" x="8" y="5644">
ヽ༼◥▶ل͜◀◤༽ﾉ
</text>
<text text-anchor="end" x="24" y="5692">
[̲̅$̲̅
</text>
<circle cx="60" cy="5688" r="36"/>
<text text-anchor="middle" x="60" y="5692">
<tspan class='head'>(</tspan>̲̅ヽ̲̅༼̲̅ຈ̲̅ل͜ຈ̲̅༽̲̅ﾉ̲̅<tspan class='head'>)</tspan>
</text>
<text text-anchor="start" x="96" y="5692">
̲̅$̲̅]
</text>
<text text-anchor="end" x="24" y="5740">
[̲̅$̲̅
</text>
<circle cx="60" cy="5736" r="36"/>
<text text-anchor="middle" x="60" y="5740">
<tspan class='head'>(</tspan>̲̅ ͡◥▶ ͜ʖ ͡◀◤<tspan class='head'>)</tspan>
</text>
<text text-anchor="start" x="96" y="5740">
̲̅$̲̅]
</text>
<text text-anchor="start" x="8" y="5788">
༼
</text>
<text text-anchor="start" x="8" y="5788">
༼ ͠ຈ
</text>
<text text-anchor="start" x="8" y="5788">
༼ ͠ຈ ͟ل͜
</text>
<text text-anchor="start" x="8" y="5788">
༼ ͠ຈ ͟ل͜ ͠ຈ༽ง
</text>
<text text-anchor="start" x="8" y="5836">
ヽ༼ຈل͜ຈ༽ﾉ☂
</text>
<text text-anchor="end" x="8" y="5884">

</text>
<circle cx="32" cy="5880" r="24"/>
<text text-anchor="middle" x="32" y="5884">
<tspan class='head'>(</tspan>＾◡＾<tspan class='head'>)</tspan>
</text>
<text text-anchor="start" x="56" y="5884">
っ
</text>
<text text-anchor="start" x="8" y="5932">
༼☯﹏☯༽
</text>
<text text-anchor="start" x="8" y="5980">
ヽ༼
</text>
<text text-anchor="start" x="8" y="5980">
ヽ༼ ☭ل͜☭
</text>
<text text-anchor="start" x="8" y="5980">
ヽ༼ ☭ل͜☭ ༽ﾉ
</text>
<text text-anchor="start" x="8" y="6028">
♌༼✪ل͜✪༽ᕤ
</text>
<text text-anchor="end" x="8" y="6076">

</text>
<circle cx="32" cy="6072" r="24"/>
<text text-anchor="middle" x="32" y="6076">
<tspan class='head'>(</tspan>͡◔ ͜ʖ ͡◔<tspan class='head'>)</tspan>
</text>
<text text-anchor="start" x="56" y="6076">

</text>
<text text-anchor="start" x="8" y="6124">
ヽ༼ʘ̚ل͜ʘ̚༽ﾉ
</text>
<text text-anchor="end" x="56" y="6172">
─=≡Σ((
</text>
<circle cx="84" cy="6168" r="28"/>
<text text-anchor="middle" x="84" y="6172">
<tspan class='head'>(</tspan> つ◕ل͜◕<tspan class='head'>)</tspan>
</text>
<text text-anchor="start" x="112" y="6172">
つ
</text>
<text text-anchor="start" x="120" y="6220">
 *
</text>
<text text-anchor="start" x="120" y="6220">
 * ･
</text>
<text text-anchor="start" x="120" y="6220">
 * ･ ｡ﾟ,
</text>
<text text-anchor="end" x="8" y="6220">

</text>
<circle cx="40" cy="6216" r="32"/>
<text text-anchor="middle" x="40" y="6220">
<tspan class='head'>(</tspan>∩ ͡° ͜ʖ ͡°<tspan class='head'>)</tspan>
</text>
<text text-anchor="start" x="72" y="6220">
⊃━☆ﾟ. 
</text>
<text text-anchor="start" x="8" y="6268">
༼ຈل͜ຈ༽&gt;ง
</text>
<text text-anchor="start" x="8" y="6316">
ᕙ༼◕ل͜◕༽ᕗ
</text>
<text text-anchor="start" x="8" y="6364">
ヽ༼ຈل͜ຈ༽ﾉ︵┻━┻
</text>
<text text-anchor="start" x="8" y="6412">
୧༼
</text>
<text text-anchor="start" x="8" y="6412">
୧༼ ͡◉ل͜
</text>
<text text-anchor="start" x="8" y="6412">
୧༼ ͡◉ل͜ ͡◉༽୨
</text>
<text text-anchor="start" x="8" y="6460">
༼
</text>
<text text-anchor="start" x="8" y="6460">
༼ ͡■ل͜
</text>
<text text-anchor="start" x="8" y="6460">
༼ ͡■ل͜ ͡■༽
</text>
<text text-anchor="end" x="8" y="6508">

</text>
<circle cx="32" cy="6504" r="24"/>
<text text-anchor="middle" x="32" y="6508">
<tspan class='head'>(</tspan>ง⌐□ل͜□<tspan class='head'>)</tspan>
</text>
<text text-anchor="start" x="56" y="6508">
ง
</text>
<text text-anchor="start" x="8" y="6556">
Ѱζ༼ᴼل͜ᴼ༽ᶘѰ
</text>
<text text-anchor="start" x="8" y="6604">
ヽ༼ຈل͜ຈ༽ง
</text>
<text text-anchor="end" x="8" y="6652">

</text>
<circle cx="32" cy="6648" r="24"/>
<text text-anchor="middle" x="32" y="6652">
<tspan class='head'>(</tspan> ° ͜ʖ͡°<tspan class='head'>)</tspan>
</text>
<text text-anchor="start" x="56" y="6652">
╭∩╮
</text>
<text text-anchor="start" x="8" y="6700">
ɳ༼ຈل͜ຈ༽ɲ
</text>
<text text-anchor="end" x="8" y="6748">

</text>
<circle cx="28" cy="6744" r="20"/>
<text text-anchor="middle" x="28" y="6748">
<tspan class='head'>(</tspan>~˘▾˘<tspan class='head'>)</tspan>
</text>
<text text-anchor="start" x="48" y="6748">
~
</text>
<text text-anchor="start" x="8" y="6796">
ʕ•ᴥ•ʔ
</text>
<text text-anchor="start" x="8" y="6844">
ヽຈل͜ﾉ༼ຈ
</text>
<text text-anchor="end" x="8" y="6892">

</text>
<circle cx="32" cy="6888" r="24"/>
<text text-anchor="middle" x="32" y="6892">
<tspan class='head'>(</tspan>☞ﾟヮﾟ<tspan class='head'>)</tspan>
</text>
<text text-anchor="start" x="56" y="6892">
☞
</text>
<text text-anchor="start" x="8" y="6940">
୧༼ಠ益ಠ༽୨
</text>
<text text-anchor="end" x="48" y="6988">
/╲/\╭
</text>
<circle cx="92" cy="6984" r="44"/>
<text text-anchor="middle" x="92" y="6988">
<tspan class='head'>(</tspan> ͡° ͡° ͜ʖ ͡° ͡°<tspan class='head'>)</tspan>
</text>
<text text-anchor="start" x="136" y="6988">
╮/\╱\
</text>
<text text-anchor="end" x="8" y="7036">

</text>
<circle cx="28" cy="7032" r="20"/>
<text text-anchor="middle" x="28" y="7036">
<tspan class='head'>(</tspan>ﾉಠ_ಠ<tspan class='head'>)</tspan>
</text>
<text text-anchor="start" x="48" y="7036">
ﾉ
</text>
<text text-anchor="end" x="16" y="7084">
└
</text>
<circle cx="32" cy="7080" r="16"/>
<text text-anchor="middle" x="32" y="7084">
<tspan class='head'>(</tspan>°ᴥ°<tspan class='head'>)</tspan>
</text>
<text text-anchor="start" x="48" y="7084">
┘
</text>
<text text-anchor="start" x="8" y="7132">
つ◕ل͜◕)つ
</text>
<text text-anchor="end" x="16" y="7180">
ლ
</text>
<circle cx="48" cy="7176" r="32"/>
<text text-anchor="middle" x="48" y="7180">
<tspan class='head'>(</tspan>́◉◞౪◟◉‵ლ<tspan class='head'>)</tspan>
</text>
<text text-anchor="start" x="80" y="7180">

</text>
<text text-anchor="start" x="8" y="7228">
ヽ༼♥ل͜♥༽ﾉ
</text>
<text text-anchor="start" x="8" y="7276">
༼
</text>
<text text-anchor="start" x="8" y="7276">
༼ ᓄºل͟º
</text>
<text text-anchor="start" x="8" y="7276">
༼ ᓄºل͟º ༽ᓄ
</text>
<text text-anchor="end" x="8" y="7324">

</text>
<circle cx="40" cy="7320" r="32"/>
<text text-anchor="middle" x="40" y="7324">
<tspan class='head'>(</tspan>ง ͠° ͟ل͜ ͡°<tspan class='head'>)</tspan>
</text>
<text text-anchor="start" x="72" y="7324">
ง
</text>
<text text-anchor="start" x="8" y="7372">
ヽ༼ຈل͜ຈ༽ﾉ
</text>
<text text-anchor="start" x="8" y="7420">
ᕦ༼ຈل͜ຈ༽ᕤ
</text>
<text text-anchor="start" x="8" y="7468">
┌༼ຈل͜ຈ༽┐
</text>
<text text-anchor="start" x="8" y="7516">
ᕙ༼ຈل͜ຈ༽ᕗ
</text>
<text text-anchor="start" x="8" y="7564">
ヽ༼&gt;ل͜&lt;༽ﾉ
</text>
<text text-anchor="end" x="8" y="7612">

</text>
<circle cx="36" cy="7608" r="28"/>
<text text-anchor="middle" x="36" y="7612">
<tspan class='head'>(</tspan> ͡° ͜ʖ ͡°<tspan class='head'>)</tspan>
</text>
<text text-anchor="start" x="64" y="7612">

</text>
<text text-anchor="start" x="8" y="7660">
ヽ༼@ل͜ຈ༽ﾉ
</text>
<text text-anchor="start" x="8" y="7708">
༼
</text>
<text text-anchor="start" x="8" y="7708">
༼ ºل͟º༼
</text>
<text text-anchor="start" x="8" y="7708">
༼ ºل͟º༼ ºل͟º༽ºل͟º
</text>
<text text-anchor="start" x="8" y="7708">
༼ ºل͟º༼ ºل͟º༽ºل͟º ༽
</text>
<text text-anchor="end" x="24" y="7756">
ヽ
</text>
<circle cx="48" cy="7752" r="24"/>
<text text-anchor="middle" x="48" y="7756">
<tspan class='head'>(</tspan> ͝° ͜ʖ͡°<tspan class='head'>)</tspan>
</text>
<text text-anchor="start" x="72" y="7756">
ﾉ
</text>
<text text-anchor="end" x="8" y="7804">

</text>
<circle cx="28" cy="7800" r="20"/>
<text text-anchor="middle" x="28" y="7804">
<tspan class='head'>(</tspan>&apos;ºل͟º<tspan class='head'>)</tspan>
</text>
<text text-anchor="start" x="48" y="7804">
ノ⌒.
</text>
<text text-anchor="end" x="24" y="7852">
[̲̅$̲̅
</text>
<circle cx="52" cy="7848" r="28"/>
<text text-anchor="middle" x="52" y="7852">
<tspan class='head'>(</tspan>̲̅ ͡° ͜ʖ ͡°̲̅<tspan class='head'>)</tspan>
</text>
<text text-anchor="start" x="80" y="7852">
̲̅$̲̅]
</text>
<text text-anchor="start" x="8" y="7900">
O͡͡͡͡͡͡͡͡͡͡͡͡͡͡╮༼;´༎ຶ.̸̸̸̸̸̸̸̸̸̸̸̸̸̸̸̸̸̸̸̸̸̸̸̸̨̨̨̨̨̨̨̨̨̨̨̨.̸̸̨̨۝
</text>
<text text-anchor="start" x="8" y="7900">
O͡͡͡͡͡͡͡͡͡͡͡͡͡͡╮༼;´༎ຶ.̸̸̸̸̸̸̸̸̸̸̸̸̸̸̸̸̸̸̸̸̸̸̸̸̨̨̨̨̨̨̨̨̨̨̨̨.̸̸̨̨۝ ༎ຶ༽╭o͡͡͡͡͡͡͡͡͡͡͡͡͡͡
</text>
<text text-anchor="end" x="16" y="7948">
ᕕ
</text>
<circle cx="32" cy="7944" r="16"/>
<text text-anchor="middle" x="32" y="7948">
<tspan class='head'>(</tspan> ᐛ <tspan class='head'>)</tspan>
</text>
<text text-anchor="start" x="48" y="7948">
ᕗ
</text>
</svg>