<svg font-family="arial" font-size="14" height="8000" width="184" xmlns="http://www.w3.org/2000/svg">
<style>

    line, path {
      stroke: black;
      stroke-width: 2;
      stroke-opacity: 1;
      fill-opacity: 1;
      stroke-linecap: round;
      stroke-linejoin: miter;
    }
    circle {
      stroke: black;
      stroke-width: 1;
      stroke-opacity: 1;
      fill-opacity: 1;
      stroke-linecap: round;
      stroke-linejoin: miter;
      fill:white;
    }
    tspan.head{
        fill: none;
        stroke: none;
    }
    
</style>
<text text-anchor="end" x="0" y="60">

</text>
<circle cx="24" cy="56" r="24"/>
<text text-anchor="middle" x="24" y="60">
<tspan class='head'>(</tspan>˙ ͜ʟ˙ <tspan class='head'>)</tspan>
</text>
<text text-anchor="start" x="48" y="60">

</text>
<text text-anchor="end" x="0" y="108">

</text>
<circle cx="28" cy="104" r="28"/>
<text text-anchor="middle" x="28" y="108">
<tspan class='head'>(</tspan>つ°ヮ°<tspan class='head'>)</tspan>
</text>
<text text-anchor="start" x="56" y="108">
つ 
</text>
<text text-anchor="end" x="0" y="252">

</text>
<circle cx="20" cy="248" r="20"/>
<text text-anchor="middle" x="20" y="252">
<tspan class='head'>(</tspan>⊙ヮ⊙<tspan class='head'>)</tspan>
</text>
<text text-anchor="start" x="40" y="252">

</text>
<text text-anchor="end" x="16" y="444">
ヽ
</text>
<circle cx="44" cy="440" r="28"/>
<text text-anchor="middle" x="44" y="444">
<tspan class='head'>(</tspan> ͝° ̯ʖ ͝°<tspan class='head'>)</tspan>
</text>
<text text-anchor="start" x="72" y="444">
ﾉ
</text>
<text text-anchor="end" x="0" y="540">

</text>
<circle cx="20" cy="536" r="20"/>
<text text-anchor="middle" x="20" y="540">
<tspan class='head'>(</tspan> ͡⚆ل͜⚆<tspan class='head'>)</tspan>
</text>
<text text-anchor="start" x="40" y="540">
ﾉ⚲
</text>
<text text-anchor="end" x="16" y="588">
ᗜԅ
</text>
<circle cx="36" cy="584" r="20"/>
<text text-anchor="middle" x="36" y="588">
<tspan class='head'>(</tspan>⇀︿⇀<tspan class='head'>)</tspan>
</text>
<text text-anchor="start" x="56" y="588">
ᓄ-¤]═────
</text>
<text text-anchor="end" x="0" y="684">

</text>
<circle cx="24" cy="680" r="24"/>
<text text-anchor="middle" x="24" y="684">
<tspan class='head'>(</tspan>つ･◡･<tspan class='head'>)</tspan>
</text>
<text text-anchor="start" x="48" y="684">
つ
</text>
<text text-anchor="end" x="8" y="732">
ᕦ
</text>
<circle cx="32" cy="728" r="24"/>
<text text-anchor="middle" x="32" y="732">
<tspan class='head'>(</tspan>눈_눈<tspan class='head'>)</tspan>
</text>
<text text-anchor="start" x="56" y="732">
ᕗ
</text>
<text text-anchor="end" x="0" y="780">

</text>
<circle cx="24" cy="776" r="24"/>
<text text-anchor="middle" x="24" y="780">
<tspan class='head'>(</tspan>⌐▀͡ ̯ʖ▀<tspan class='head'>)</tspan>
</text>
<text text-anchor="start" x="48" y="780">

</text>
<text text-anchor="end" x="16" y="876">
ヽ
</text>
<circle cx="44" cy="872" r="28"/>
<text text-anchor="middle" x="44" y="876">
<tspan class='head'>(</tspan> ⌐□益□<tspan class='head'>)</tspan>
</text>
<text text-anchor="start" x="72" y="876">
/
</text>
<text text-anchor="end" x="0" y="924">

</text>
<circle cx="20" cy="920" r="20"/>
<text text-anchor="middle" x="20" y="924">
<tspan class='head'>(</tspan>▀̿̿Ĺ̯̿̿▀̿ ̿<tspan class='head'>)</tspan>
</text>
<text text-anchor="start" x="40" y="924">

</text>
<text text-anchor="end" x="16" y="1212">
ヽ
</text>
<circle cx="44" cy="1208" r="28"/>
<text text-anchor="middle" x="44" y="1212">
<tspan class='head'>(</tspan> °╭∩╮°<tspan class='head'>)</tspan>
</text>
<text text-anchor="start" x="72" y="1212">
ﾉ
</text>
<text text-anchor="end" x="0" y="1404">

</text>
<circle cx="24" cy="1400" r="24"/>
<text text-anchor="middle" x="24" y="1404">
<tspan class='head'>(</tspan> ° ͜ʖ͡°<tspan class='head'>)</tspan>
</text>
<text text-anchor="start" x="48" y="1404">
╭∩╮
</text>
<text text-anchor="end" x="16" y="1788">
ヽ
</text>
<circle cx="40" cy="1784" r="24"/>
<text text-anchor="middle" x="40" y="1788">
<tspan class='head'>(</tspan>ಥ益ಥ;<tspan class='head'>)</tspan>
</text>
<text text-anchor="start" x="64" y="1788">

</text>
<text text-anchor="end" x="8" y="1836">
╭
</text>
<circle cx="36" cy="1832" r="28"/>
<text text-anchor="middle" x="36" y="1836">
<tspan class='head'>(</tspan> ☯̿∠ ̿☯ <tspan class='head'>)</tspan>
</text>
<text text-anchor="start" x="64" y="1836">
╯
</text>
<text text-anchor="end" x="16" y="1884">
Ѱ୧
</text>
<circle cx="36" cy="1880" r="20"/>
<text text-anchor="middle" x="36" y="1884">
<tspan class='head'>(</tspan>ಠل͟ ಠ<tspan class='head'>)</tspan>
</text>
<text text-anchor="start" x="56" y="1884">

</text>
<text text-anchor="end" x="24" y="1916">
Ѱへ
</text>
<circle cx="44" cy="1912" r="20"/>
<text text-anchor="middle" x="44" y="1916">
<tspan class='head'>(</tspan>ಠل͟ ಠ<tspan class='head'>)</tspan>
</text>
<text text-anchor="start" x="64" y="1916">

</text>
<text text-anchor="end" x="16" y="2060">
ヽ
</text>
<circle cx="36" cy="2056" r="20"/>
<text text-anchor="middle" x="36" y="2060">
<tspan class='head'>(</tspan>๏∀◕ <tspan class='head'>)</tspan>
</text>
<text text-anchor="start" x="56" y="2060">
ﾉ
</text>
<text text-anchor="end" x="16" y="2108">
＼
</text>
<circle cx="40" cy="2104" r="24"/>
<text text-anchor="middle" x="40" y="2108">
<tspan class='head'>(</tspan>´◓Д◔`<tspan class='head'>)</tspan>
</text>
<text text-anchor="start" x="64" y="2108">
／
</text>
<text text-anchor="end" x="64" y="2204">
 ͡-)-
</text>
<circle cx="84" cy="2200" r="20"/>
<text text-anchor="middle" x="84" y="2204">
<tspan class='head'>(</tspan>ಠ﹏ಥ<tspan class='head'>)</tspan>
</text>
<text text-anchor="start" x="104" y="2204">
-(ಠ﹏ಥ)
</text>
<text text-anchor="end" x="8" y="2300">
╭
</text>
<circle cx="24" cy="2296" r="16"/>
<text text-anchor="middle" x="24" y="2300">
<tspan class='head'>(</tspan>•⌣•<tspan class='head'>)</tspan>
</text>
<text text-anchor="start" x="40" y="2300">
╮
</text>
<text text-anchor="end" x="8" y="2444">
╰
</text>
<circle cx="24" cy="2440" r="16"/>
<text text-anchor="middle" x="24" y="2444">
<tspan class='head'>(</tspan>◉͜ʖ◉<tspan class='head'>)</tspan>
</text>
<text text-anchor="start" x="40" y="2444">
ԅ†. 
</text>
<text text-anchor="end" x="8" y="2492">
╭
</text>
<circle cx="40" cy="2488" r="32"/>
<text text-anchor="middle" x="40" y="2492">
<tspan class='head'>(</tspan>۝乁 ͜ﾚ ㄏ۝<tspan class='head'>)</tspan>
</text>
<text text-anchor="start" x="72" y="2492">
╮
</text>
<text text-anchor="end" x="16" y="2588">
Ѱ╭
</text>
<circle cx="24" cy="2584" r="8"/>
<text text-anchor="middle" x="24" y="2588">
<tspan class='head'>(</tspan>۝⌣۝<tspan class='head'>)</tspan>
</text>
<text text-anchor="start" x="32" y="2588">
╮Ѱ
</text>
<text text-anchor="end" x="16" y="2684">
凸
</text>
<circle cx="36" cy="2680" r="20"/>
<text text-anchor="middle" x="36" y="2684">
<tspan class='head'>(</tspan>▀̿̿益☢<tspan class='head'>)</tspan>
</text>
<text text-anchor="start" x="56" y="2684">
凸
</text>
<text text-anchor="end" x="16" y="2828">
乁
</text>
<circle cx="36" cy="2824" r="20"/>
<text text-anchor="middle" x="36" y="2828">
<tspan class='head'>(</tspan>ಥ౪ಥ;<tspan class='head'>)</tspan>
</text>
<text text-anchor="start" x="56" y="2828">
ㄏ
</text>
<text text-anchor="end" x="0" y="2972">

</text>
<circle cx="16" cy="2968" r="16"/>
<text text-anchor="middle" x="16" y="2972">
<tspan class='head'>(</tspan>▀̿̿Ĺ̯̿̿°<tspan class='head'>)</tspan>
</text>
<text text-anchor="start" x="32" y="2972">
ง
</text>
<text text-anchor="end" x="0" y="3116">

</text>
<circle cx="28" cy="3112" r="28"/>
<text text-anchor="middle" x="28" y="3116">
<tspan class='head'>(</tspan>っ˘̩╭╮˘̩<tspan class='head'>)</tspan>
</text>
<text text-anchor="start" x="56" y="3116">
っ
</text>
<text text-anchor="end" x="0" y="3164">

</text>
<circle cx="20" cy="3160" r="20"/>
<text text-anchor="middle" x="20" y="3164">
<tspan class='head'>(</tspan>⌣_⌣”<tspan class='head'>)</tspan>
</text>
<text text-anchor="start" x="40" y="3164">

</text>
<text text-anchor="end" x="0" y="3260">

</text>
<circle cx="28" cy="3256" r="28"/>
<text text-anchor="middle" x="28" y="3260">
<tspan class='head'>(</tspan> ° ͜ਊ °<tspan class='head'>)</tspan>
</text>
<text text-anchor="start" x="56" y="3260">
╭∩╮
</text>
<text text-anchor="end" x="16" y="3308">
⋛⋋
</text>
<circle cx="40" cy="3304" r="24"/>
<text text-anchor="middle" x="40" y="3308">
<tspan class='head'>(</tspan> ՞ਊ ՞<tspan class='head'>)</tspan>
</text>
<text text-anchor="start" x="64" y="3308">
⋌⋚
</text>
<text text-anchor="end" x="0" y="3356">

</text>
<circle cx="20" cy="3352" r="20"/>
<text text-anchor="middle" x="20" y="3356">
<tspan class='head'>(</tspan>｡˘з˘<tspan class='head'>)</tspan>
</text>
<text text-anchor="start" x="40" y="3356">
ᗡლ==8
</text>
<text text-anchor="end" x="0" y="3500">

</text>
<circle cx="24" cy="3496" r="24"/>
<text text-anchor="middle" x="24" y="3500">
<tspan class='head'>(</tspan> ͝° ͜ʖ͡°<tspan class='head'>)</tspan>
</text>
<text text-anchor="start" x="48" y="3500">
つY
</text>
<text text-anchor="end" x="16" y="3548">
ヽ
</text>
<circle cx="48" cy="3544" r="32"/>
<text text-anchor="middle" x="48" y="3548">
<tspan class='head'>(</tspan> ͡°╭͜ʖ╮͡° <tspan class='head'>)</tspan>
</text>
<text text-anchor="start" x="80" y="3548">
ﾉ
</text>
<text text-anchor="end" x="24" y="3692">
/╲/
</text>
<circle cx="52" cy="3688" r="28"/>
<text text-anchor="middle" x="52" y="3692">
<tspan class='head'>(</tspan> ͡⎚ ͜U ͡⎚<tspan class='head'>)</tspan>
</text>
<text text-anchor="start" x="80" y="3692">
/\╱\
</text>
<text text-anchor="end" x="0" y="3740">

</text>
<circle cx="28" cy="3736" r="28"/>
<text text-anchor="middle" x="28" y="3740">
<tspan class='head'>(</tspan> ͡⚆ ͜ʖ ͡⚆<tspan class='head'>)</tspan>
</text>
<text text-anchor="start" x="56" y="3740">

</text>
<text text-anchor="end" x="0" y="3836">

</text>
<circle cx="24" cy="3832" r="24"/>
<text text-anchor="middle" x="24" y="3836">
<tspan class='head'>(</tspan> ͡ _ ͡°<tspan class='head'>)</tspan>
</text>
<text text-anchor="start" x="48" y="3836">
ﾉ⚲
</text>
<text text-anchor="end" x="8" y="4172">
ᕕ
</text>
<circle cx="36" cy="4168" r="28"/>
<text text-anchor="middle" x="36" y="4172">
<tspan class='head'>(</tspan> ͡° ͜ʖ ͡°<tspan class='head'>)</tspan>
</text>
<text text-anchor="start" x="64" y="4172">
ᕗ
</text>
<text text-anchor="end" x="0" y="4412">

</text>
<circle cx="20" cy="4408" r="20"/>
<text text-anchor="middle" x="20" y="4412">
<tspan class='head'>(</tspan>° ͜ʖ°<tspan class='head'>)</tspan>
</text>
<text text-anchor="start" x="40" y="4412">

</text>
<text text-anchor="end" x="0" y="4556">

</text>
<circle cx="20" cy="4552" r="20"/>
<text text-anchor="middle" x="20" y="4556">
<tspan class='head'>(</tspan>╯°□°<tspan class='head'>)</tspan>
</text>
<text text-anchor="start" x="40" y="4556">
╯︵ 
</text>
<text text-anchor="end" x="0" y="4652">

</text>
<circle cx="28" cy="4648" r="28"/>
<text text-anchor="middle" x="28" y="4652">
<tspan class='head'>(</tspan> ＾◡＾<tspan class='head'>)</tspan>
</text>
<text text-anchor="start" x="56" y="4652">
っ✂╰⋃╯
</text>
<text text-anchor="end" x="8" y="4700">
╰
</text>
<circle cx="36" cy="4696" r="28"/>
<text text-anchor="middle" x="36" y="4700">
<tspan class='head'>(</tspan> ͡&apos;◟◯ ͡&apos;<tspan class='head'>)</tspan>
</text>
<text text-anchor="start" x="64" y="4700">
╯
</text>
<text text-anchor="end" x="16" y="4892">
 
</text>
<circle cx="48" cy="4888" r="32"/>
<text text-anchor="middle" x="48" y="4892">
<tspan class='head'>(</tspan>° ~͜ʖ~ °<tspan class='head'>)</tspan>
</text>
<text text-anchor="start" x="80" y="4892">
 
</text>
<text text-anchor="end" x="16" y="4940">
乁
</text>
<circle cx="40" cy="4936" r="24"/>
<text text-anchor="middle" x="40" y="4940">
<tspan class='head'>(</tspan> ◔ ౪◔<tspan class='head'>)</tspan>
</text>
<text text-anchor="start" x="64" y="4940">
ㄏ
</text>
<text text-anchor="end" x="0" y="5132">

</text>
<circle cx="28" cy="5128" r="28"/>
<text text-anchor="middle" x="28" y="5132">
<tspan class='head'>(</tspan> ﾉ ﾟｰﾟ<tspan class='head'>)</tspan>
</text>
<text text-anchor="start" x="56" y="5132">
ﾉ
</text>
<text text-anchor="end" x="16" y="5228">
ヽ
</text>
<circle cx="40" cy="5224" r="24"/>
<text text-anchor="middle" x="40" y="5228">
<tspan class='head'>(</tspan>ﾟｰﾟヽ<tspan class='head'>)</tspan>
</text>
<text text-anchor="start" x="64" y="5228">

</text>
<text text-anchor="end" x="0" y="5324">

</text>
<circle cx="24" cy="5320" r="24"/>
<text text-anchor="middle" x="24" y="5324">
<tspan class='head'>(</tspan>☢益☢t<tspan class='head'>)</tspan>
</text>
<text text-anchor="start" x="48" y="5324">

</text>
<text text-anchor="end" x="8" y="5420">
╮
</text>
<circle cx="24" cy="5416" r="16"/>
<text text-anchor="middle" x="24" y="5420">
<tspan class='head'>(</tspan>╯▽╰<tspan class='head'>)</tspan>
</text>
<text text-anchor="start" x="40" y="5420">
╭
</text>
<text text-anchor="end" x="8" y="5468">
╮
</text>
<circle cx="24" cy="5464" r="16"/>
<text text-anchor="middle" x="24" y="5468">
<tspan class='head'>(</tspan>╯ل͜╰<tspan class='head'>)</tspan>
</text>
<text text-anchor="start" x="40" y="5468">
╭
</text>
<text text-anchor="end" x="0" y="5564">

</text>
<circle cx="24" cy="5560" r="24"/>
<text text-anchor="middle" x="24" y="5564">
<tspan class='head'>(</tspan>ι´Д｀<tspan class='head'>)</tspan>
</text>
<text text-anchor="start" x="48" y="5564">
ﾉ
</text>
<text text-anchor="end" x="16" y="5660">
[̲̅$̲̅
</text>
<circle cx="52" cy="5656" r="36"/>
<text text-anchor="middle" x="52" y="5660">
<tspan class='head'>(</tspan>̲̅ヽ̲̅༼̲̅ຈ̲̅ل͜ຈ̲̅༽̲̅ﾉ̲̅<tspan class='head'>)</tspan>
</text>
<text text-anchor="start" x="88" y="5660">
̲̅$̲̅]
</text>
<text text-anchor="end" x="16" y="5708">
[̲̅$̲̅
</text>
<circle cx="52" cy="5704" r="36"/>
<text text-anchor="middle" x="52" y="5708">
<tspan class='head'>(</tspan>̲̅ ͡◥▶ ͜ʖ ͡◀◤<tspan class='head'>)</tspan>
</text>
<text text-anchor="start" x="88" y="5708">
̲̅$̲̅]
</text>
<text text-anchor="end" x="0" y="5852">

</text>
<circle cx="24" cy="5848" r="24"/>
<text text-anchor="middle" x="24" y="5852">
<tspan class='head'>(</tspan>＾◡＾<tspan class='head'>)</tspan>
</text>
<text text-anchor="start" x="48" y="5852">
っ
</text>
<text text-anchor="end" x="0" y="6044">

</text>
<circle cx="24" cy="6040" r="24"/>
<text text-anchor="middle" x="24" y="6044">
<tspan class='head'>(</tspan>͡◔ ͜ʖ ͡◔<tspan class='head'>)</tspan>
</text>
<text text-anchor="start" x="48" y="6044">

</text>
<text text-anchor="end" x="48" y="6140">
─=≡Σ((
</text>
<circle cx="76" cy="6136" r="28"/>
<text text-anchor="middle" x="76" y="6140">
<tspan class='head'>(</tspan> つ◕ل͜◕<tspan class='head'>)</tspan>
</text>
<text text-anchor="start" x="104" y="6140">
つ
</text>
<text text-anchor="end" x="0" y="6188">

</text>
<circle cx="32" cy="6184" r="32"/>
<text text-anchor="middle" x="32" y="6188">
<tspan class='head'>(</tspan>∩ ͡° ͜ʖ ͡°<tspan class='head'>)</tspan>
</text>
<text text-anchor="start" x="64" y="6188">
⊃━☆ﾟ. 
</text>
<text text-anchor="end" x="0" y="6476">

</text>
<circle cx="24" cy="6472" r="24"/>
<text text-anchor="middle" x="24" y="6476">
<tspan class='head'>(</tspan>ง⌐□ل͜□<tspan class='head'>)</tspan>
</text>
<text text-anchor="start" x="48" y="6476">
ง
</text>
<text text-anchor="end" x="0" y="6620">

</text>
<circle cx="24" cy="6616" r="24"/>
<text text-anchor="middle" x="24" y="6620">
<tspan class='head'>(</tspan> ° ͜ʖ͡°<tspan class='head'>)</tspan>
</text>
<text text-anchor="start" x="48" y="6620">
╭∩╮
</text>
<text text-anchor="end" x="0" y="6716">

</text>
<circle cx="20" cy="6712" r="20"/>
<text text-anchor="middle" x="20" y="6716">
<tspan class='head'>(</tspan>~˘▾˘<tspan class='head'>)</tspan>
</text>
<text text-anchor="start" x="40" y="6716">
~
</text>
<text text-anchor="end" x="0" y="6860">

</text>
<circle cx="24" cy="6856" r="24"/>
<text text-anchor="middle" x="24" y="6860">
<tspan class='head'>(</tspan>☞ﾟヮﾟ<tspan class='head'>)</tspan>
</text>
<text text-anchor="start" x="48" y="6860">
☞
</text>
<text text-anchor="end" x="0" y="7004">

</text>
<circle cx="20" cy="7000" r="20"/>
<text text-anchor="middle" x="20" y="7004">
<tspan class='head'>(</tspan>ﾉಠ_ಠ<tspan class='head'>)</tspan>
</text>
<text text-anchor="start" x="40" y="7004">
ﾉ
</text>
<text text-anchor="end" x="8" y="7052">
└
</text>
<circle cx="24" cy="7048" r="16"/>
<text text-anchor="middle" x="24" y="7052">
<tspan class='head'>(</tspan>°ᴥ°<tspan class='head'>)</tspan>
</text>
<text text-anchor="start" x="40" y="7052">
┘
</text>
<text text-anchor="end" x="8" y="7148">
ლ
</text>
<circle cx="40" cy="7144" r="32"/>
<text text-anchor="middle" x="40" y="7148">
<tspan class='head'>(</tspan>́◉◞౪◟◉‵ლ<tspan class='head'>)</tspan>
</text>
<text text-anchor="start" x="72" y="7148">

</text>
<text text-anchor="end" x="0" y="7292">

</text>
<circle cx="32" cy="7288" r="32"/>
<text text-anchor="middle" x="32" y="7292">
<tspan class='head'>(</tspan>ง ͠° ͟ل͜ ͡°<tspan class='head'>)</tspan>
</text>
<text text-anchor="start" x="64" y="7292">
ง
</text>
<text text-anchor="end" x="0" y="7580">

</text>
<circle cx="28" cy="7576" r="28"/>
<text text-anchor="middle" x="28" y="7580">
<tspan class='head'>(</tspan> ͡° ͜ʖ ͡°<tspan class='head'>)</tspan>
</text>
<text text-anchor="start" x="56" y="7580">

</text>
<text text-anchor="end" x="16" y="7724">
ヽ
</text>
<circle cx="40" cy="7720" r="24"/>
<text text-anchor="middle" x="40" y="7724">
<tspan class='head'>(</tspan> ͝° ͜ʖ͡°<tspan class='head'>)</tspan>
</text>
<text text-anchor="start" x="64" y="7724">
ﾉ
</text>
<text text-anchor="end" x="0" y="7772">

</text>
<circle cx="20" cy="7768" r="20"/>
<text text-anchor="middle" x="20" y="7772">
<tspan class='head'>(</tspan>&apos;ºل͟º<tspan class='head'>)</tspan>
</text>
<text text-anchor="start" x="40" y="7772">
ノ⌒.
</text>
<text text-anchor="end" x="16" y="7820">
[̲̅$̲̅
</text>
<circle cx="44" cy="7816" r="28"/>
<text text-anchor="middle" x="44" y="7820">
<tspan class='head'>(</tspan>̲̅ ͡° ͜ʖ ͡°̲̅<tspan class='head'>)</tspan>
</text>
<text text-anchor="start" x="72" y="7820">
̲̅$̲̅]
</text>
<text text-anchor="end" x="8" y="7916">
ᕕ
</text>
<circle cx="24" cy="7912" r="16"/>
<text text-anchor="middle" x="24" y="7916">
<tspan class='head'>(</tspan> ᐛ <tspan class='head'>)</tspan>
</text>
<text text-anchor="start" x="40" y="7916">
ᕗ
</text>
</svg>